<svg id="Layer_1" data-name="Layer 1" xmlns="http://www.w3.org/2000/svg" viewBox="0 0 244 44.65"><defs><style>.cls-1{isolation:isolate;}.cls-2{fill:#fff;}</style></defs><title>logo-obdd-light</title><g class="cls-1"><path class="cls-2" d="M10,3.47V7.31L12.3,3.47H31.64q3.57,1,3.37,10.08V39.94q-.7,3.23-5.48,3.37H7.18C3.86,43.45,1.93,42,1.41,39V5.26Zm0,8.64V34.67H26.37V12.11Z"/><path class="cls-2" d="M41,3.59H59.27q5.9.31,7.15,2.78a9.65,9.65,0,0,1,1,5.27q-.24,2.82-4.19,7.15,6.15-.24,6.85,4.4V36a8.26,8.26,0,0,1-2.24,5.32,9.67,9.67,0,0,1-4.67,2.53,21.29,21.29,0,0,1-13.36-1.35l2.93-7.35q6.21,2,7.75,1c1-.67,1.44-4.05,1.24-10.12L50.69,26v7.21Q49.13,44.43,40.08,43.37V36q2.73,0,2.29-4.63V26.26H40l0-7.47,3,.06V11.91h-3.1Zm9.7,8.32v6.56l3.78-.82c2.65-1.43,3.87-3.34,3.63-5.74Z"/><path class="cls-2" d="M76,3.59h25.84l5.62,0V21.43a23.5,23.5,0,0,1-.86,8.6,21.14,21.14,0,0,1-4.69,8,14.27,14.27,0,0,1-7.64,4.82Q90,43.79,75,43.43l.06-8.32,5.57-.06-3.28-1.64V12.29H74.54Zm9.87,8.7v23a11.3,11.3,0,0,0,7.68-1.37,9.74,9.74,0,0,0,4.3-5q1.1-3,.68-16.68Z"/><path class="cls-2" d="M113.1,3.59h25.84l5.63,0V21.43a23.72,23.72,0,0,1-.87,8.6,21.24,21.24,0,0,1-4.68,8,14.33,14.33,0,0,1-7.65,4.82q-4.17.91-19.2.56l0-8.32,5.57-.06-3.28-1.64V12.29H111.7Zm9.88,8.7v23a11.28,11.28,0,0,0,7.67-1.37A9.76,9.76,0,0,0,135,29q1.08-3,.67-16.68Z"/><path class="cls-2" d="M150.76,15.57l12.36,0L161.8,23.1H149.44Z"/><path class="cls-2" d="M185.63.74l9.25.09V3.7h9.93a4.26,4.26,0,0,1,4,4.05l-.06,26.57q-1.5,6.33-4.19,8a12.17,12.17,0,0,1-6.65,1.71V35.2q2.4.19,2-11.34V12.58h-5V42.11l-9.43,1.67,0-31.2H181.7v30l-9.43,1.2,0-29.56,3.19-1.9h-4.07l2.43-8.65h11.84Z"/><path class="cls-2" d="M214.63,3.56h26.61l-1.09,8.79h-9.46v19c-.33,3,.66,4.7,3,5.24l-2.14,8.27a8.94,8.94,0,0,1-6.78-2.61,10,10,0,0,1-2.86-7.21V14.1l3.78-1.81-11.92,0Z"/></g></svg>